<svg xmlns="http://www.w3.org/2000/svg" xmlns:xlink="http://www.w3.org/1999/xlink" width="40" zoomAndPan="magnify" viewBox="0 0 30 30.000001" height="40" preserveAspectRatio="xMidYMid meet" version="1.0"><defs><clipPath id="bc9d72bf49"><path d="M 0.484375 0 L 29.515625 0 L 29.515625 29.03125 L 0.484375 29.03125 Z M 0.484375 0 " clip-rule="nonzero"/></clipPath><clipPath id="be1b7dc00c"><path d="M 4.113281 0 L 25.886719 0 C 27.890625 0 29.515625 1.625 29.515625 3.628906 L 29.515625 25.402344 C 29.515625 27.40625 27.890625 29.03125 25.886719 29.03125 L 4.113281 29.03125 C 2.109375 29.03125 0.484375 27.40625 0.484375 25.402344 L 0.484375 3.628906 C 0.484375 1.625 2.109375 0 4.113281 0 Z M 4.113281 0 " clip-rule="nonzero"/></clipPath><clipPath id="96eb926eb2"><path d="M 0.484375 0 L 29.515625 0 L 29.515625 29.03125 L 0.484375 29.03125 Z M 0.484375 0 " clip-rule="nonzero"/></clipPath><clipPath id="e766c67b84"><path d="M 4.113281 0 L 25.886719 0 C 27.890625 0 29.515625 1.625 29.515625 3.628906 L 29.515625 25.402344 C 29.515625 27.40625 27.890625 29.03125 25.886719 29.03125 L 4.113281 29.03125 C 2.109375 29.03125 0.484375 27.40625 0.484375 25.402344 L 0.484375 3.628906 C 0.484375 1.625 2.109375 0 4.113281 0 Z M 4.113281 0 " clip-rule="nonzero"/></clipPath><clipPath id="b3ac2c6a2e"><rect x="0" width="30" y="0" height="30"/></clipPath><clipPath id="bc5f9c8787"><path d="M 8 6 L 24.414062 6 L 24.414062 26.027344 L 8 26.027344 Z M 8 6 " clip-rule="nonzero"/></clipPath><clipPath id="def0170a55"><path d="M 5.542969 2.074219 L 18 2.074219 L 18 14 L 5.542969 14 Z M 5.542969 2.074219 " clip-rule="nonzero"/></clipPath></defs><g clip-path="url(#bc9d72bf49)"><g clip-path="url(#be1b7dc00c)"><g transform="matrix(1, 0, 0, 1, 0, 0.000000000000005692)"><g clip-path="url(#b3ac2c6a2e)"><g clip-path="url(#96eb926eb2)"><g clip-path="url(#e766c67b84)"><path fill="#f15a24" d="M 0.484375 0 L 29.515625 0 L 29.515625 29.03125 L 0.484375 29.03125 Z M 0.484375 0 " fill-opacity="1" fill-rule="nonzero"/></g></g></g></g></g></g><g clip-path="url(#bc5f9c8787)"><path fill="#ffffff" d="M 12.121094 16.738281 C 11.953125 16.164062 11.789062 15.585938 11.621094 15.007812 C 11 12.917969 10.371094 10.832031 9.765625 8.738281 C 9.472656 7.722656 9.992188 6.78125 10.957031 6.496094 C 11.890625 6.21875 12.847656 6.734375 13.152344 7.726562 C 13.5 8.851562 13.804688 9.988281 14.128906 11.117188 C 14.148438 11.183594 14.171875 11.25 14.203125 11.351562 C 14.335938 11.238281 14.457031 11.140625 14.570312 11.035156 C 14.804688 10.808594 15.085938 10.75 15.378906 10.863281 C 15.929688 11.074219 16.507812 11.234375 16.972656 11.625 C 17.054688 11.695312 17.101562 11.6875 17.171875 11.617188 C 17.269531 11.519531 17.375 11.425781 17.480469 11.332031 C 17.738281 11.097656 18.039062 11.046875 18.347656 11.183594 C 18.878906 11.421875 19.445312 11.59375 19.886719 11.996094 C 19.992188 12.089844 20.046875 12.023438 20.109375 11.957031 C 20.4375 11.59375 20.804688 11.574219 21.253906 11.746094 C 22.753906 12.320312 22.78125 12.328125 23.226562 13.851562 C 23.492188 14.757812 23.773438 15.660156 24.015625 16.574219 C 24.324219 17.738281 24.335938 18.941406 24.375 20.136719 C 24.417969 21.320312 24.414062 22.507812 24.445312 23.695312 C 24.449219 23.910156 24.382812 24 24.179688 24.046875 C 23.304688 24.234375 23.480469 24.226562 23.460938 23.515625 C 23.421875 22.210938 23.378906 20.902344 23.382812 19.597656 C 23.386719 17.941406 22.992188 16.371094 22.484375 14.816406 C 22.347656 14.398438 22.210938 13.976562 22.097656 13.550781 C 22.023438 13.261719 21.875 13.0625 21.597656 12.960938 C 21.445312 12.902344 21.300781 12.832031 21.15625 12.761719 C 20.949219 12.667969 20.769531 12.648438 20.574219 12.824219 C 20.375 13 20.324219 13.175781 20.414062 13.429688 C 20.542969 13.8125 20.648438 14.199219 20.75 14.589844 C 20.839844 14.925781 20.699219 15.214844 20.441406 15.277344 C 20.171875 15.339844 19.925781 15.171875 19.820312 14.839844 C 19.644531 14.265625 19.457031 13.691406 19.308594 13.105469 C 19.214844 12.746094 19.050781 12.480469 18.679688 12.375 C 18.625 12.359375 18.570312 12.324219 18.515625 12.300781 C 18.035156 12.082031 17.71875 12.203125 17.503906 12.679688 C 17.453125 12.785156 17.496094 12.875 17.519531 12.96875 C 17.636719 13.394531 17.761719 13.820312 17.882812 14.246094 C 17.910156 14.351562 17.945312 14.457031 17.964844 14.566406 C 18.007812 14.828125 17.867188 15.066406 17.636719 15.140625 C 17.40625 15.214844 17.167969 15.089844 17.058594 14.832031 C 17.015625 14.730469 16.984375 14.625 16.953125 14.519531 C 16.761719 13.875 16.566406 13.230469 16.382812 12.582031 C 16.320312 12.371094 16.214844 12.222656 16.007812 12.148438 C 15.914062 12.113281 15.824219 12.0625 15.730469 12.023438 C 15.167969 11.773438 15.097656 11.792969 14.6875 12.273438 C 14.574219 12.410156 14.542969 12.53125 14.601562 12.710938 C 14.816406 13.390625 15.003906 14.078125 15.207031 14.765625 C 15.308594 15.109375 15.195312 15.398438 14.914062 15.480469 C 14.644531 15.5625 14.394531 15.402344 14.292969 15.058594 C 13.910156 13.78125 13.535156 12.496094 13.15625 11.214844 C 12.839844 10.136719 12.523438 9.054688 12.199219 7.976562 C 12.089844 7.613281 11.757812 7.390625 11.402344 7.402344 C 11.066406 7.410156 10.777344 7.640625 10.671875 7.976562 C 10.628906 8.117188 10.628906 8.25 10.671875 8.390625 C 11.511719 11.234375 12.347656 14.078125 13.179688 16.925781 C 13.316406 17.386719 13.449219 17.851562 13.570312 18.316406 C 13.652344 18.613281 13.554688 18.851562 13.320312 18.957031 C 13.054688 19.070312 12.84375 19.011719 12.652344 18.78125 C 11.945312 17.914062 11.121094 17.1875 10.050781 16.792969 C 9.945312 16.757812 9.839844 16.722656 9.730469 16.707031 C 9.445312 16.65625 9.179688 16.699219 9.027344 16.980469 C 8.886719 17.230469 8.957031 17.554688 9.203125 17.773438 C 9.59375 18.125 10.003906 18.445312 10.386719 18.800781 C 11.382812 19.726562 12.300781 20.726562 13.222656 21.722656 C 14.03125 22.59375 14.992188 23.296875 15.863281 24.105469 C 16.351562 24.554688 16.851562 24.988281 17.355469 25.421875 C 17.539062 25.578125 17.523438 25.675781 17.332031 25.8125 C 16.78125 26.199219 16.785156 26.199219 16.28125 25.753906 C 15.253906 24.839844 14.21875 23.929688 13.1875 23.015625 C 12.480469 22.386719 11.902344 21.632812 11.230469 20.96875 C 10.414062 20.160156 9.613281 19.34375 8.707031 18.632812 C 8.140625 18.1875 7.929688 17.628906 8.042969 16.9375 C 8.164062 16.179688 8.871094 15.65625 9.632812 15.726562 C 10.390625 15.796875 11.03125 16.144531 11.660156 16.53125 C 11.796875 16.613281 11.925781 16.703125 12.058594 16.789062 C 12.078125 16.773438 12.101562 16.757812 12.121094 16.738281 Z M 12.121094 16.738281 " fill-opacity="1" fill-rule="nonzero"/></g><g clip-path="url(#def0170a55)"><path fill="#ffffff" d="M 6.5 7.964844 C 6.5 9.921875 7.695312 11.691406 9.535156 12.425781 C 9.796875 12.53125 9.886719 12.652344 9.875 12.925781 C 9.847656 13.621094 9.855469 13.632812 9.207031 13.355469 C 5.996094 11.992188 4.503906 8.21875 6.34375 5.0625 C 7.480469 3.109375 9.222656 2.085938 11.464844 2.109375 C 13.863281 2.136719 15.644531 3.3125 16.699219 5.472656 C 17.429688 6.96875 17.488281 8.53125 16.804688 10.082031 C 16.601562 10.550781 16.574219 10.546875 16.164062 10.269531 C 15.773438 10.003906 15.773438 10.003906 15.960938 9.582031 C 16.660156 7.976562 16.257812 5.964844 14.964844 4.605469 C 13.535156 3.101562 11.496094 2.652344 9.570312 3.417969 C 7.730469 4.152344 6.503906 5.976562 6.5 7.964844 Z M 6.5 7.964844 " fill-opacity="1" fill-rule="nonzero"/></g><path fill="#ffffff" d="M 14.851562 8.03125 C 14.851562 8.121094 14.855469 8.210938 14.851562 8.304688 C 14.832031 8.683594 14.6875 8.84375 14.382812 8.832031 C 14.039062 8.816406 13.855469 8.601562 13.875 8.238281 C 13.96875 6.457031 12.402344 5.148438 10.71875 5.601562 C 9.054688 6.046875 8.34375 8.046875 9.347656 9.449219 C 9.597656 9.800781 9.5625 10.066406 9.234375 10.253906 C 8.976562 10.398438 8.828125 10.359375 8.621094 10.089844 C 7.4375 8.53125 7.785156 6.304688 9.394531 5.1875 C 10.550781 4.382812 11.777344 4.308594 13.007812 4.96875 C 14.210938 5.617188 14.824219 6.65625 14.851562 8.03125 Z M 14.851562 8.03125 " fill-opacity="1" fill-rule="nonzero"/></svg>