<svg xmlns="http://www.w3.org/2000/svg" xmlns:xlink="http://www.w3.org/1999/xlink" width="40" zoomAndPan="magnify" viewBox="0 0 30 30.000001" height="40" preserveAspectRatio="xMidYMid meet" version="1.0"><defs><clipPath id="c4576833a3"><path d="M 1.804688 1.117188 L 27.933594 1.117188 L 27.933594 27.972656 L 1.804688 27.972656 Z M 1.804688 1.117188 " clip-rule="nonzero"/></clipPath></defs><g clip-path="url(#c4576833a3)"><path fill="#f34280" d="M 28.128906 17.851562 C 26.644531 23.621094 21.410156 27.882812 15.175781 27.882812 C 7.789062 27.882812 1.800781 21.894531 1.800781 14.507812 C 1.800781 7.121094 7.789062 1.132812 15.175781 1.132812 C 15.351562 1.132812 15.527344 1.136719 15.699219 1.144531 C 15.941406 1.152344 16.140625 1.3125 16.199219 1.550781 C 16.261719 1.785156 16.160156 2.023438 15.953125 2.144531 C 13.15625 3.800781 11.28125 6.847656 11.28125 10.332031 C 11.28125 15.585938 15.539062 19.84375 20.792969 19.84375 C 23.28125 19.84375 25.546875 18.886719 27.242188 17.320312 C 27.421875 17.15625 27.675781 17.128906 27.886719 17.253906 C 28.09375 17.378906 28.191406 17.617188 28.128906 17.851562 Z M 28.128906 17.851562 " fill-opacity="1" fill-rule="evenodd"/></g></svg>