<svg xmlns="http://www.w3.org/2000/svg" xmlns:xlink="http://www.w3.org/1999/xlink" width="40" zoomAndPan="magnify" viewBox="0 0 30 30.000001" height="40" preserveAspectRatio="xMidYMid meet" version="1.0"><defs><clipPath id="7296b115da"><path d="M 6 0 L 28.300781 0 L 28.300781 29.03125 L 6 29.03125 Z M 6 0 " clip-rule="nonzero"/></clipPath><clipPath id="64050145cb"><path d="M 19 0 L 28.300781 0 L 28.300781 9 L 19 9 Z M 19 0 " clip-rule="nonzero"/></clipPath><clipPath id="116fa17b68"><path d="M 1.445312 12 L 23 12 L 23 22 L 1.445312 22 Z M 1.445312 12 " clip-rule="nonzero"/></clipPath></defs><g clip-path="url(#7296b115da)"><path fill="#008bf5" d="M 9.964844 0.00390625 L 19.703125 0.00390625 L 28.304688 8.679688 L 28.304688 25.347656 C 28.304688 27.375 26.660156 29.027344 24.65625 29.027344 L 9.964844 29.027344 C 7.960938 29.027344 6.316406 27.375 6.316406 25.347656 L 6.316406 3.683594 C 6.316406 1.660156 7.960938 0.00390625 9.964844 0.00390625 Z M 9.964844 0.00390625 " fill-opacity="1" fill-rule="evenodd"/></g><g clip-path="url(#64050145cb)"><path fill="#006fc4" d="M 19.703125 0.00390625 L 28.304688 8.679688 L 20.632812 8.679688 C 20.121094 8.679688 19.703125 8.261719 19.703125 7.746094 Z M 19.703125 0.00390625 " fill-opacity="1" fill-rule="evenodd"/></g><g clip-path="url(#116fa17b68)"><path fill="#006fc4" d="M 2.25 12.363281 L 22.054688 12.363281 C 22.496094 12.363281 22.855469 12.726562 22.855469 13.171875 L 22.855469 20.503906 C 22.855469 20.949219 22.496094 21.3125 22.054688 21.3125 L 2.25 21.3125 C 1.808594 21.3125 1.449219 20.949219 1.449219 20.503906 L 1.449219 13.171875 C 1.449219 12.726562 1.808594 12.363281 2.25 12.363281 Z M 2.25 12.363281 " fill-opacity="1" fill-rule="evenodd"/></g><path fill="#ffffff" d="M 10.03125 13.859375 C 8.953125 13.859375 8.074219 14.746094 8.074219 15.835938 L 8.074219 17.839844 C 8.074219 18.929688 8.953125 19.816406 10.03125 19.816406 C 11.113281 19.816406 11.992188 18.929688 11.992188 17.839844 L 11.992188 15.835938 C 11.992188 14.746094 11.113281 13.859375 10.03125 13.859375 Z M 11.0625 17.839844 C 11.0625 18.414062 10.601562 18.878906 10.03125 18.878906 C 9.464844 18.878906 9.003906 18.414062 9.003906 17.839844 L 9.003906 15.835938 C 9.003906 15.261719 9.464844 14.796875 10.03125 14.796875 C 10.601562 14.796875 11.0625 15.261719 11.0625 15.835938 Z M 13.546875 15.835938 L 13.546875 17.839844 C 13.546875 18.414062 14.007812 18.878906 14.574219 18.878906 C 15.144531 18.878906 15.605469 18.414062 15.605469 17.839844 C 15.605469 17.582031 15.8125 17.371094 16.070312 17.371094 C 16.328125 17.371094 16.535156 17.582031 16.535156 17.839844 C 16.535156 18.929688 15.65625 19.816406 14.574219 19.816406 C 13.496094 19.816406 12.617188 18.929688 12.617188 17.839844 L 12.617188 15.835938 C 12.617188 14.746094 13.496094 13.859375 14.574219 13.859375 C 15.65625 13.859375 16.535156 14.746094 16.535156 15.835938 C 16.535156 16.09375 16.328125 16.304688 16.070312 16.304688 C 15.8125 16.304688 15.605469 16.09375 15.605469 15.835938 C 15.605469 15.261719 15.144531 14.796875 14.574219 14.796875 C 14.007812 14.796875 13.546875 15.261719 13.546875 15.835938 Z M 5.410156 13.859375 L 3.917969 13.859375 C 3.660156 13.859375 3.453125 14.070312 3.453125 14.328125 L 3.453125 19.347656 C 3.453125 19.605469 3.660156 19.816406 3.917969 19.816406 L 5.410156 19.816406 C 6.492188 19.816406 7.371094 18.929688 7.371094 17.839844 L 7.371094 15.835938 C 7.371094 14.746094 6.492188 13.859375 5.410156 13.859375 Z M 6.441406 17.839844 C 6.441406 18.414062 5.980469 18.878906 5.410156 18.878906 L 4.382812 18.878906 L 4.382812 14.796875 L 5.410156 14.796875 C 5.980469 14.796875 6.441406 15.261719 6.441406 15.835938 Z M 20.785156 19.105469 C 20.917969 19.328125 20.84375 19.617188 20.625 19.75 C 20.550781 19.792969 20.46875 19.816406 20.386719 19.816406 C 20.230469 19.816406 20.074219 19.734375 19.988281 19.589844 L 18.890625 17.746094 L 17.796875 19.589844 C 17.710938 19.734375 17.554688 19.816406 17.398438 19.816406 C 17.316406 19.816406 17.234375 19.792969 17.160156 19.75 C 16.9375 19.617188 16.867188 19.328125 17 19.105469 L 18.351562 16.835938 L 17 14.570312 C 16.867188 14.347656 16.9375 14.058594 17.160156 13.925781 C 17.378906 13.792969 17.664062 13.863281 17.796875 14.085938 L 18.890625 15.929688 L 19.988281 14.085938 C 20.121094 13.863281 20.40625 13.792969 20.625 13.925781 C 20.84375 14.058594 20.917969 14.347656 20.785156 14.570312 L 19.433594 16.835938 Z M 20.785156 19.105469 " fill-opacity="1" fill-rule="nonzero"/></svg>