<svg xmlns="http://www.w3.org/2000/svg" xmlns:xlink="http://www.w3.org/1999/xlink" width="40" zoomAndPan="magnify" viewBox="0 0 30 30.000001" height="40" preserveAspectRatio="xMidYMid meet" version="1.0"><defs><clipPath id="b432ee6fcb"><path d="M 0.484375 0 L 29.515625 0 L 29.515625 29.03125 L 0.484375 29.03125 Z M 0.484375 0 " clip-rule="nonzero"/></clipPath></defs><path fill="#ec1c24" d="M 13.214844 22.050781 C 13.214844 20.996094 13.972656 20.234375 15 20.234375 C 16.085938 20.234375 16.78125 20.996094 16.78125 22.050781 C 16.78125 23.074219 16.085938 23.867188 15 23.867188 C 13.941406 23.867188 13.214844 23.074219 13.214844 22.050781 Z M 13.835938 17.632812 L 12.996094 7.203125 C 12.957031 6.679688 13.871094 6.253906 15 6.253906 C 16.128906 6.253906 17.042969 6.683594 17 7.203125 L 16.160156 17.632812 C 16.132812 17.988281 15.621094 18.265625 15 18.265625 C 14.378906 18.265625 13.867188 17.988281 13.835938 17.632812 Z M 13.835938 17.632812 " fill-opacity="1" fill-rule="nonzero"/><g clip-path="url(#b432ee6fcb)"><path fill="#ec1c24" d="M 15 29.03125 C 6.996094 29.03125 0.484375 22.519531 0.484375 14.515625 C 0.484375 6.511719 6.996094 0 15 0 C 23.003906 0 29.515625 6.511719 29.515625 14.515625 C 29.515625 22.519531 23.003906 29.03125 15 29.03125 Z M 15 2.476562 C 8.359375 2.476562 2.957031 7.875 2.957031 14.515625 C 2.957031 21.15625 8.359375 26.554688 15 26.554688 C 21.640625 26.554688 27.039062 21.15625 27.039062 14.515625 C 27.039062 7.875 21.640625 2.476562 15 2.476562 Z M 15 2.476562 " fill-opacity="1" fill-rule="nonzero"/></g></svg>