<svg xmlns="http://www.w3.org/2000/svg" xmlns:xlink="http://www.w3.org/1999/xlink" width="40" zoomAndPan="magnify" viewBox="0 0 30 30.000001" height="40" preserveAspectRatio="xMidYMid meet" version="1.0"><defs><clipPath id="e3b62ae816"><path d="M 0.484375 0 L 22 0 L 22 29.03125 L 0.484375 29.03125 Z M 0.484375 0 " clip-rule="nonzero"/></clipPath><clipPath id="5bdf30e278"><path d="M 8 3 L 29.515625 3 L 29.515625 26 L 8 26 Z M 8 3 " clip-rule="nonzero"/></clipPath></defs><path fill="#f15a24" d="M 6.789062 13.148438 C 6.625 13.015625 6.355469 13.046875 6.191406 13.214844 L 4.789062 14.949219 L 4.355469 14.550781 C 4.1875 14.382812 3.921875 14.382812 3.753906 14.550781 C 3.585938 14.714844 3.585938 14.984375 3.753906 15.148438 C 3.753906 15.148438 4.554688 15.882812 4.554688 15.882812 C 4.753906 16.050781 5.054688 15.984375 5.15625 15.851562 L 6.824219 13.75 C 6.992188 13.546875 7.058594 13.347656 6.789062 13.148438 Z M 6.789062 13.148438 " fill-opacity="1" fill-rule="nonzero"/><g clip-path="url(#e3b62ae816)"><path fill="#f15a24" d="M 21.539062 17.152344 C 21.308594 17.152344 21.140625 17.351562 21.140625 17.554688 L 21.140625 28.199219 L 1.351562 28.199219 L 1.351562 0.835938 L 15.132812 0.835938 L 15.132812 6.375 C 15.132812 6.605469 15.300781 6.808594 15.535156 6.808594 L 21.074219 6.808594 L 21.074219 7.339844 C 21.074219 7.574219 21.273438 7.742188 21.472656 7.742188 C 21.675781 7.742188 21.875 7.542969 21.875 7.339844 L 21.875 6.375 C 21.875 6.273438 21.839844 6.171875 21.742188 6.074219 L 15.867188 0.132812 C 15.800781 0.0351562 15.667969 0 15.566406 0 L 0.949219 0 C 0.71875 0 0.550781 0.199219 0.550781 0.402344 L 0.550781 28.632812 C 0.550781 28.867188 0.75 29.03125 0.949219 29.03125 L 21.539062 29.03125 C 21.773438 29.03125 21.941406 28.832031 21.941406 28.632812 L 21.941406 17.554688 C 21.941406 17.320312 21.773438 17.152344 21.539062 17.152344 Z M 21.539062 17.152344 " fill-opacity="1" fill-rule="nonzero"/></g><path fill="#f15a24" d="M 19.003906 8.644531 C 19.003906 8.410156 18.804688 8.242188 18.605469 8.242188 L 8.660156 8.242188 C 8.425781 8.242188 8.257812 8.441406 8.257812 8.644531 C 8.257812 8.84375 8.460938 9.042969 8.660156 9.042969 L 18.605469 9.042969 C 18.835938 9.078125 19.003906 8.875 19.003906 8.644531 Z M 19.003906 8.644531 " fill-opacity="1" fill-rule="nonzero"/><path fill="#f15a24" d="M 8.660156 10.378906 C 8.425781 10.378906 8.257812 10.578125 8.257812 10.777344 C 8.257812 10.980469 8.460938 11.179688 8.660156 11.179688 L 15.800781 11.179688 C 16.035156 11.179688 16.203125 10.980469 16.203125 10.777344 C 16.203125 10.578125 16.035156 10.378906 15.800781 10.378906 Z M 8.660156 10.378906 " fill-opacity="1" fill-rule="nonzero"/><path fill="#f15a24" d="M 6.789062 7.640625 C 6.625 7.507812 6.355469 7.542969 6.191406 7.707031 L 4.789062 9.445312 L 4.355469 9.042969 C 4.1875 8.875 3.921875 8.875 3.753906 9.042969 C 3.585938 9.210938 3.585938 9.476562 3.753906 9.644531 C 3.753906 9.644531 4.554688 10.378906 4.554688 10.378906 C 4.753906 10.546875 5.054688 10.476562 5.15625 10.34375 L 6.824219 8.242188 C 6.992188 8.042969 7.023438 7.84375 6.789062 7.640625 Z M 6.789062 7.640625 " fill-opacity="1" fill-rule="nonzero"/><path fill="#f15a24" d="M 6.789062 18.453125 C 6.625 18.320312 6.355469 18.355469 6.191406 18.519531 L 4.789062 20.253906 L 4.355469 19.855469 C 4.1875 19.6875 3.921875 19.6875 3.753906 19.855469 C 3.585938 20.023438 3.585938 20.289062 3.753906 20.457031 C 3.753906 20.457031 4.554688 21.191406 4.554688 21.191406 C 4.753906 21.355469 5.054688 21.289062 5.15625 21.15625 L 6.824219 19.054688 C 6.992188 18.886719 7.023438 18.652344 6.789062 18.453125 Z M 6.789062 18.453125 " fill-opacity="1" fill-rule="nonzero"/><g clip-path="url(#5bdf30e278)"><path fill="#f15a24" d="M 29.214844 7.574219 L 28.015625 6.640625 L 28.816406 5.605469 C 28.980469 5.40625 29.148438 5.074219 28.78125 4.773438 L 27.046875 3.402344 C 26.78125 3.171875 26.347656 3.171875 26.113281 3.46875 L 25.3125 4.503906 C 25.246094 4.472656 25.144531 4.4375 25.078125 4.472656 C 24.976562 4.472656 24.878906 4.539062 24.8125 4.636719 L 23.410156 6.441406 C 23.308594 6.605469 23.308594 6.808594 23.410156 6.941406 L 18.136719 13.648438 L 8.660156 13.648438 C 8.425781 13.648438 8.257812 13.847656 8.257812 14.050781 C 8.257812 14.25 8.460938 14.449219 8.660156 14.449219 L 17.46875 14.449219 L 16.46875 15.75 L 8.660156 15.75 C 8.425781 15.75 8.257812 15.949219 8.257812 16.152344 C 8.257812 16.351562 8.460938 16.550781 8.660156 16.550781 L 15.835938 16.550781 L 13.933594 19.054688 L 8.660156 19.054688 C 8.425781 19.054688 8.257812 19.253906 8.257812 19.453125 C 8.257812 19.65625 8.460938 19.855469 8.660156 19.855469 L 13.265625 19.855469 L 12.429688 20.921875 C 12.429688 20.921875 12.398438 21.023438 12.363281 21.15625 L 8.660156 21.15625 C 8.425781 21.15625 8.257812 21.355469 8.257812 21.558594 C 8.257812 21.757812 8.460938 21.957031 8.660156 21.957031 L 12.097656 21.957031 C 11.761719 23.027344 11.328125 24.527344 11.328125 24.527344 C 11.261719 24.695312 11.328125 24.894531 11.460938 24.996094 C 11.597656 25.09375 11.796875 25.09375 11.929688 25.027344 C 11.929688 25.027344 15.101562 23.125 15.167969 23.058594 L 26.078125 9.011719 C 26.144531 9.042969 26.210938 9.078125 26.3125 9.078125 C 26.445312 9.078125 26.578125 9.011719 26.644531 8.910156 L 27.78125 7.441406 L 28.382812 7.910156 L 24.976562 12.347656 C 24.84375 12.546875 24.878906 12.78125 25.042969 12.949219 C 25.210938 13.113281 25.476562 13.046875 25.644531 12.882812 L 29.316406 8.175781 C 29.449219 7.976562 29.382812 7.707031 29.214844 7.574219 Z M 12.429688 23.792969 L 13.03125 21.789062 C 13.265625 21.925781 13.464844 22.058594 13.664062 22.191406 C 13.867188 22.359375 14.066406 22.523438 14.234375 22.691406 Z M 26.246094 8.140625 L 24.277344 6.605469 L 25.109375 5.539062 L 27.082031 7.074219 Z M 26.246094 8.140625 " fill-opacity="1" fill-rule="nonzero"/></g></svg>