<svg xmlns="http://www.w3.org/2000/svg" xmlns:xlink="http://www.w3.org/1999/xlink" width="40" zoomAndPan="magnify" viewBox="0 0 30 30.000001" height="40" preserveAspectRatio="xMidYMid meet" version="1.0"><defs><clipPath id="f1bdd88686"><path d="M 0.484375 0 L 29.515625 0 L 29.515625 29.03125 L 0.484375 29.03125 Z M 0.484375 0 " clip-rule="nonzero"/></clipPath><clipPath id="4cab49339c"><path d="M 4.113281 0 L 25.886719 0 C 27.890625 0 29.515625 1.625 29.515625 3.628906 L 29.515625 25.402344 C 29.515625 27.40625 27.890625 29.03125 25.886719 29.03125 L 4.113281 29.03125 C 2.109375 29.03125 0.484375 27.40625 0.484375 25.402344 L 0.484375 3.628906 C 0.484375 1.625 2.109375 0 4.113281 0 Z M 4.113281 0 " clip-rule="nonzero"/></clipPath><clipPath id="ab98b8012c"><path d="M 0.484375 0 L 29.515625 0 L 29.515625 29.03125 L 0.484375 29.03125 Z M 0.484375 0 " clip-rule="nonzero"/></clipPath><clipPath id="314f6d3063"><path d="M 4.113281 0 L 25.886719 0 C 27.890625 0 29.515625 1.625 29.515625 3.628906 L 29.515625 25.402344 C 29.515625 27.40625 27.890625 29.03125 25.886719 29.03125 L 4.113281 29.03125 C 2.109375 29.03125 0.484375 27.40625 0.484375 25.402344 L 0.484375 3.628906 C 0.484375 1.625 2.109375 0 4.113281 0 Z M 4.113281 0 " clip-rule="nonzero"/></clipPath><clipPath id="5e02e1bee6"><rect x="0" width="30" y="0" height="30"/></clipPath><clipPath id="11e0a8a75b"><path d="M 4.328125 2.804688 L 25.378906 2.804688 L 25.378906 26.03125 L 4.328125 26.03125 Z M 4.328125 2.804688 " clip-rule="nonzero"/></clipPath></defs><g clip-path="url(#f1bdd88686)"><g clip-path="url(#4cab49339c)"><g transform="matrix(1, 0, 0, 1, 0, 0.000000000000005692)"><g clip-path="url(#5e02e1bee6)"><g clip-path="url(#ab98b8012c)"><g clip-path="url(#314f6d3063)"><path fill="#ec1c24" d="M 0.484375 0 L 29.515625 0 L 29.515625 29.03125 L 0.484375 29.03125 Z M 0.484375 0 " fill-opacity="1" fill-rule="nonzero"/></g></g></g></g></g></g><g clip-path="url(#11e0a8a75b)"><path fill="#ffffff" d="M 13.472656 2.804688 C 12.148438 2.804688 11.035156 3.652344 10.617188 4.832031 L 6.121094 4.832031 C 5.148438 4.832031 4.347656 5.628906 4.347656 6.605469 L 4.347656 21.304688 C 4.347656 22.28125 5.148438 23.078125 6.121094 23.078125 L 9.671875 23.078125 C 10.089844 23.078125 10.429688 22.738281 10.429688 22.320312 C 10.429688 21.898438 10.089844 21.558594 9.671875 21.558594 L 6.121094 21.558594 C 5.984375 21.558594 5.871094 21.445312 5.871094 21.304688 L 5.871094 6.605469 C 5.871094 6.464844 5.984375 6.351562 6.121094 6.351562 L 9.417969 6.351562 L 9.417969 7.875 C 9.417969 8.433594 9.871094 8.886719 10.429688 8.886719 L 16.511719 8.886719 C 17.074219 8.886719 17.527344 8.433594 17.527344 7.875 L 17.527344 6.351562 L 20.820312 6.351562 C 20.960938 6.351562 21.074219 6.464844 21.074219 6.605469 L 21.074219 9.140625 C 21.074219 9.558594 21.414062 9.902344 21.835938 9.902344 C 22.253906 9.902344 22.59375 9.558594 22.59375 9.140625 L 22.59375 6.605469 C 22.59375 5.628906 21.796875 4.832031 20.820312 4.832031 L 16.328125 4.832031 C 15.910156 3.652344 14.796875 2.804688 13.472656 2.804688 Z M 13.472656 4.324219 C 14.3125 4.324219 14.992188 5.007812 14.992188 5.847656 C 14.992188 6.683594 14.3125 7.367188 13.472656 7.367188 C 12.632812 7.367188 11.953125 6.683594 11.953125 5.847656 C 11.953125 5.007812 12.632812 4.324219 13.472656 4.324219 Z M 14.242188 11.929688 C 13.269531 11.929688 12.464844 12.730469 12.464844 13.703125 L 12.464844 24.347656 C 12.464844 25.316406 13.269531 26.121094 14.242188 26.121094 L 23.867188 26.121094 C 24.835938 26.121094 25.640625 25.316406 25.640625 24.347656 L 25.640625 13.703125 C 25.640625 12.730469 24.835938 11.929688 23.867188 11.929688 Z M 14.242188 13.449219 L 23.867188 13.449219 C 24.015625 13.449219 24.121094 13.554688 24.121094 13.703125 L 24.121094 24.347656 C 24.121094 24.492188 24.015625 24.597656 23.867188 24.597656 L 14.242188 24.597656 C 14.09375 24.597656 13.988281 24.492188 13.988281 24.347656 L 13.988281 13.703125 C 13.988281 13.554688 14.09375 13.449219 14.242188 13.449219 Z M 17.28125 15.988281 C 17.066406 15.984375 16.886719 16.058594 16.734375 16.207031 C 16.582031 16.355469 16.507812 16.535156 16.507812 16.75 C 16.507812 16.960938 16.582031 17.140625 16.734375 17.289062 C 16.886719 17.4375 17.066406 17.511719 17.28125 17.507812 L 20.816406 17.507812 C 21.03125 17.511719 21.210938 17.4375 21.363281 17.289062 C 21.511719 17.140625 21.589844 16.960938 21.589844 16.75 C 21.589844 16.535156 21.511719 16.355469 21.363281 16.207031 C 21.210938 16.058594 21.03125 15.984375 20.816406 15.988281 Z M 17.28125 20.039062 C 17.066406 20.035156 16.886719 20.109375 16.734375 20.257812 C 16.582031 20.40625 16.507812 20.585938 16.507812 20.800781 C 16.507812 21.011719 16.582031 21.191406 16.734375 21.339844 C 16.886719 21.492188 17.066406 21.5625 17.28125 21.558594 L 19.804688 21.558594 C 20.019531 21.5625 20.199219 21.492188 20.351562 21.339844 C 20.5 21.191406 20.578125 21.011719 20.578125 20.800781 C 20.578125 20.585938 20.5 20.40625 20.351562 20.257812 C 20.199219 20.109375 20.019531 20.035156 19.804688 20.039062 Z M 17.28125 20.039062 " fill-opacity="1" fill-rule="nonzero"/></g></svg>