<svg xmlns="http://www.w3.org/2000/svg" xmlns:xlink="http://www.w3.org/1999/xlink" width="40" zoomAndPan="magnify" viewBox="0 0 30 30.000001" height="40" preserveAspectRatio="xMidYMid meet" version="1.0"><defs><g/><clipPath id="28505bbc0e"><path d="M 3.386719 0 L 26.613281 0 L 26.613281 29.03125 L 3.386719 29.03125 Z M 3.386719 0 " clip-rule="nonzero"/></clipPath><clipPath id="d511035f01"><path d="M 19 5 L 26.613281 5 L 26.613281 14 L 19 14 Z M 19 5 " clip-rule="nonzero"/></clipPath><clipPath id="bea4752764"><path d="M 17 0 L 26.613281 0 L 26.613281 9 L 17 9 Z M 17 0 " clip-rule="nonzero"/></clipPath></defs><g clip-path="url(#28505bbc0e)"><path fill="#de3b38" d="M 6.289062 0 L 17.902344 0 L 26.613281 8.710938 L 26.613281 26.128906 C 26.613281 26.515625 26.539062 26.882812 26.390625 27.238281 C 26.246094 27.597656 26.035156 27.910156 25.761719 28.183594 C 25.492188 28.453125 25.175781 28.664062 24.820312 28.8125 C 24.464844 28.957031 24.09375 29.03125 23.710938 29.03125 L 6.289062 29.03125 C 5.90625 29.03125 5.535156 28.957031 5.179688 28.8125 C 4.824219 28.664062 4.507812 28.453125 4.238281 28.183594 C 3.964844 27.910156 3.753906 27.597656 3.609375 27.238281 C 3.460938 26.882812 3.386719 26.515625 3.386719 26.128906 L 3.386719 2.902344 C 3.386719 2.519531 3.460938 2.148438 3.609375 1.792969 C 3.753906 1.4375 3.964844 1.121094 4.238281 0.851562 C 4.507812 0.578125 4.824219 0.367188 5.179688 0.222656 C 5.535156 0.0742188 5.90625 0 6.289062 0 Z M 6.289062 0 " fill-opacity="1" fill-rule="nonzero"/></g><g fill="#ffffff" fill-opacity="1"><g transform="translate(6.290322, 21.004839)"><g><path d="M 5.5 -4.09375 C 5.5 -3.707031 5.410156 -3.363281 5.234375 -3.0625 C 5.066406 -2.757812 4.816406 -2.523438 4.484375 -2.359375 C 4.160156 -2.191406 3.773438 -2.109375 3.328125 -2.109375 L 1.828125 -2.109375 L 1.828125 0 L 0.578125 0 L 0.578125 -5.984375 L 3.265625 -5.984375 C 3.984375 -5.984375 4.535156 -5.816406 4.921875 -5.484375 C 5.304688 -5.160156 5.5 -4.695312 5.5 -4.09375 Z M 4.25 -4.078125 C 4.25 -4.703125 3.875 -5.015625 3.125 -5.015625 L 1.828125 -5.015625 L 1.828125 -3.078125 L 3.171875 -3.078125 C 3.515625 -3.078125 3.78125 -3.160156 3.96875 -3.328125 C 4.15625 -3.503906 4.25 -3.753906 4.25 -4.078125 Z M 4.25 -4.078125 "/></g></g><g transform="translate(12.099609, 21.004839)"><g><path d="M 5.921875 -3.03125 C 5.921875 -2.414062 5.796875 -1.878906 5.546875 -1.421875 C 5.304688 -0.960938 4.960938 -0.609375 4.515625 -0.359375 C 4.078125 -0.117188 3.570312 0 3 0 L 0.578125 0 L 0.578125 -5.984375 L 2.75 -5.984375 C 3.757812 -5.984375 4.539062 -5.726562 5.09375 -5.21875 C 5.644531 -4.71875 5.921875 -3.988281 5.921875 -3.03125 Z M 4.65625 -3.03125 C 4.65625 -3.675781 4.488281 -4.164062 4.15625 -4.5 C 3.820312 -4.84375 3.34375 -5.015625 2.71875 -5.015625 L 1.828125 -5.015625 L 1.828125 -0.96875 L 2.890625 -0.96875 C 3.429688 -0.96875 3.859375 -1.148438 4.171875 -1.515625 C 4.492188 -1.890625 4.65625 -2.394531 4.65625 -3.03125 Z M 4.65625 -3.03125 "/></g></g><g transform="translate(18.389459, 21.004839)"><g><path d="M 1.828125 -5.015625 L 1.828125 -3.171875 L 4.90625 -3.171875 L 4.90625 -2.203125 L 1.828125 -2.203125 L 1.828125 0 L 0.578125 0 L 0.578125 -5.984375 L 5 -5.984375 L 5 -5.015625 Z M 1.828125 -5.015625 "/></g></g></g><g clip-path="url(#d511035f01)"><path fill="#d13532" d="M 26.613281 13.007812 L 19.09375 8.15625 L 22.851562 5.125 L 26.613281 8.710938 Z M 26.613281 13.007812 " fill-opacity="1" fill-rule="nonzero"/></g><g clip-path="url(#bea4752764)"><path fill="#d56c6f" d="M 17.902344 0 L 17.902344 5.804688 C 17.902344 6.191406 17.976562 6.5625 18.125 6.917969 C 18.273438 7.273438 18.480469 7.585938 18.753906 7.859375 C 19.027344 8.132812 19.339844 8.339844 19.695312 8.488281 C 20.050781 8.636719 20.421875 8.710938 20.804688 8.710938 L 26.613281 8.710938 Z M 17.902344 0 " fill-opacity="1" fill-rule="nonzero"/></g></svg>