<svg xmlns="http://www.w3.org/2000/svg" xmlns:xlink="http://www.w3.org/1999/xlink" width="40" zoomAndPan="magnify" viewBox="0 0 30 30.000001" height="40" preserveAspectRatio="xMidYMid meet" version="1.0"><defs><clipPath id="d4b75aef0e"><path d="M 0.484375 0 L 29.515625 0 L 29.515625 29.03125 L 0.484375 29.03125 Z M 0.484375 0 " clip-rule="nonzero"/></clipPath><clipPath id="24710e0fc2"><path d="M 4.113281 0 L 25.886719 0 C 27.890625 0 29.515625 1.625 29.515625 3.628906 L 29.515625 25.402344 C 29.515625 27.40625 27.890625 29.03125 25.886719 29.03125 L 4.113281 29.03125 C 2.109375 29.03125 0.484375 27.40625 0.484375 25.402344 L 0.484375 3.628906 C 0.484375 1.625 2.109375 0 4.113281 0 Z M 4.113281 0 " clip-rule="nonzero"/></clipPath><clipPath id="2c1bd5d5ad"><path d="M 0.484375 0 L 29.515625 0 L 29.515625 29.03125 L 0.484375 29.03125 Z M 0.484375 0 " clip-rule="nonzero"/></clipPath><clipPath id="282adb13b2"><path d="M 4.113281 0 L 25.886719 0 C 27.890625 0 29.515625 1.625 29.515625 3.628906 L 29.515625 25.402344 C 29.515625 27.40625 27.890625 29.03125 25.886719 29.03125 L 4.113281 29.03125 C 2.109375 29.03125 0.484375 27.40625 0.484375 25.402344 L 0.484375 3.628906 C 0.484375 1.625 2.109375 0 4.113281 0 Z M 4.113281 0 " clip-rule="nonzero"/></clipPath><clipPath id="861b9e80bf"><rect x="0" width="30" y="0" height="30"/></clipPath><clipPath id="622616d1b0"><path d="M 4.070312 21 L 7 21 L 7 25 L 4.070312 25 Z M 4.070312 21 " clip-rule="nonzero"/></clipPath><clipPath id="fc7c71d462"><path d="M 4.070312 24 L 20 24 L 20 25.402344 L 4.070312 25.402344 Z M 4.070312 24 " clip-rule="nonzero"/></clipPath><clipPath id="b29d15aceb"><path d="M 4.070312 2.902344 L 26.570312 2.902344 L 26.570312 25 L 4.070312 25 Z M 4.070312 2.902344 " clip-rule="nonzero"/></clipPath></defs><g clip-path="url(#d4b75aef0e)"><g clip-path="url(#24710e0fc2)"><g transform="matrix(1, 0, 0, 1, 0, 0.000000000000005692)"><g clip-path="url(#861b9e80bf)"><g clip-path="url(#2c1bd5d5ad)"><g clip-path="url(#282adb13b2)"><path fill="#8c52ff" d="M 0.484375 0 L 29.515625 0 L 29.515625 29.03125 L 0.484375 29.03125 Z M 0.484375 0 " fill-opacity="1" fill-rule="nonzero"/></g></g></g></g></g></g><g clip-path="url(#622616d1b0)"><path fill="#ffffff" d="M 4.34375 24.207031 L 6.203125 24.207031 C 6.355469 24.207031 6.480469 24.085938 6.480469 23.933594 L 6.480469 21.582031 C 6.480469 21.429688 6.355469 21.304688 6.203125 21.304688 L 4.34375 21.304688 C 4.191406 21.304688 4.070312 21.429688 4.070312 21.582031 L 4.070312 23.933594 C 4.070312 24.085938 4.191406 24.207031 4.34375 24.207031 Z M 4.621094 21.855469 L 5.929688 21.855469 L 5.929688 23.65625 L 4.621094 23.65625 Z M 4.621094 21.855469 " fill-opacity="1" fill-rule="nonzero"/></g><path fill="#ffffff" d="M 9.398438 24.207031 C 9.550781 24.207031 9.675781 24.085938 9.675781 23.933594 L 9.675781 19.472656 C 9.675781 19.324219 9.550781 19.199219 9.398438 19.199219 L 7.539062 19.199219 C 7.386719 19.199219 7.265625 19.324219 7.265625 19.472656 L 7.265625 23.933594 C 7.265625 24.085938 7.386719 24.207031 7.539062 24.207031 Z M 7.816406 19.75 L 9.125 19.75 L 9.125 23.65625 L 7.816406 23.65625 Z M 7.816406 19.75 " fill-opacity="1" fill-rule="nonzero"/><path fill="#ffffff" d="M 12.59375 24.207031 C 12.746094 24.207031 12.871094 24.085938 12.871094 23.933594 L 12.871094 20.828125 C 12.871094 20.675781 12.746094 20.550781 12.59375 20.550781 L 10.734375 20.550781 C 10.582031 20.550781 10.460938 20.675781 10.460938 20.828125 L 10.460938 23.933594 C 10.460938 24.085938 10.582031 24.207031 10.734375 24.207031 Z M 11.011719 21.101562 L 12.320312 21.101562 L 12.320312 23.65625 L 11.011719 23.65625 Z M 11.011719 21.101562 " fill-opacity="1" fill-rule="nonzero"/><g clip-path="url(#fc7c71d462)"><path fill="#ffffff" d="M 18.984375 24.703125 L 4.34375 24.703125 C 4.191406 24.703125 4.070312 24.828125 4.070312 24.980469 C 4.070312 25.132812 4.191406 25.253906 4.34375 25.253906 L 18.984375 25.253906 C 19.136719 25.253906 19.261719 25.132812 19.261719 24.980469 C 19.261719 24.828125 19.136719 24.703125 18.984375 24.703125 Z M 18.984375 24.703125 " fill-opacity="1" fill-rule="nonzero"/></g><g clip-path="url(#b29d15aceb)"><path fill="#ffffff" d="M 26.207031 17.789062 L 23.28125 14.859375 C 23.226562 14.808594 23.15625 14.78125 23.085938 14.78125 C 23.011719 14.78125 22.941406 14.808594 22.890625 14.859375 L 22.796875 14.953125 L 22.179688 14.335938 C 22.378906 14.046875 22.546875 13.734375 22.679688 13.402344 C 22.925781 12.800781 23.046875 12.160156 23.046875 11.507812 C 23.046875 10.855469 22.925781 10.21875 22.679688 9.617188 C 22.578125 9.367188 22.460938 9.128906 22.320312 8.902344 C 22.390625 8.898438 22.457031 8.863281 22.5 8.808594 L 22.839844 8.34375 L 23.191406 8.308594 L 23.617188 8.695312 C 23.691406 8.761719 23.796875 8.773438 23.882812 8.726562 L 24.507812 8.390625 C 24.59375 8.347656 24.640625 8.25 24.625 8.152344 L 24.539062 7.582031 L 24.761719 7.3125 L 25.335938 7.28125 C 25.433594 7.277344 25.519531 7.210938 25.546875 7.117188 L 25.753906 6.441406 C 25.78125 6.347656 25.746094 6.246094 25.667969 6.1875 L 25.203125 5.84375 L 25.167969 5.496094 L 25.554688 5.066406 C 25.621094 4.996094 25.632812 4.886719 25.585938 4.800781 L 25.253906 4.179688 C 25.207031 4.09375 25.109375 4.042969 25.011719 4.058594 L 24.441406 4.144531 L 24.171875 3.925781 L 24.144531 3.347656 C 24.136719 3.25 24.070312 3.164062 23.976562 3.136719 L 23.300781 2.933594 C 23.207031 2.90625 23.105469 2.9375 23.046875 3.019531 L 22.703125 3.484375 L 22.355469 3.519531 L 21.929688 3.128906 C 21.855469 3.066406 21.75 3.050781 21.664062 3.097656 L 21.039062 3.433594 C 20.953125 3.480469 20.90625 3.574219 20.921875 3.671875 L 21.007812 4.242188 L 20.785156 4.515625 L 20.207031 4.542969 C 20.109375 4.546875 20.027344 4.613281 19.996094 4.707031 L 19.792969 5.382812 C 19.765625 5.480469 19.800781 5.582031 19.878906 5.640625 L 20.34375 5.980469 L 20.378906 6.328125 L 19.992188 6.757812 C 19.964844 6.785156 19.945312 6.820312 19.9375 6.859375 C 19.929688 6.855469 19.917969 6.851562 19.910156 6.847656 C 19.308594 6.601562 18.671875 6.476562 18.015625 6.476562 C 17.363281 6.476562 16.726562 6.601562 16.125 6.847656 C 15.5 7.097656 14.941406 7.472656 14.460938 7.953125 C 13.980469 8.429688 13.609375 8.992188 13.355469 9.617188 C 13.109375 10.21875 12.984375 10.855469 12.984375 11.507812 C 12.984375 12.164062 13.109375 12.800781 13.355469 13.402344 C 13.609375 14.027344 13.980469 14.585938 14.460938 15.066406 C 14.5625 15.167969 14.671875 15.269531 14.78125 15.363281 C 14.382812 15.402344 14.070312 15.738281 14.070312 16.144531 C 14.070312 16.269531 14.101562 16.382812 14.148438 16.488281 L 11.976562 18.75 C 11.882812 18.710938 11.777344 18.6875 11.664062 18.6875 C 11.445312 18.6875 11.25 18.777344 11.105469 18.921875 L 9.257812 18.085938 C 9.257812 18.070312 9.257812 18.054688 9.257812 18.035156 C 9.257812 17.601562 8.90625 17.246094 8.46875 17.246094 C 8.035156 17.246094 7.683594 17.601562 7.683594 18.035156 C 7.683594 18.097656 7.6875 18.15625 7.703125 18.210938 L 5.738281 19.5 C 5.609375 19.402344 5.449219 19.347656 5.273438 19.347656 C 4.839844 19.347656 4.488281 19.699219 4.488281 20.132812 C 4.488281 20.570312 4.839844 20.921875 5.273438 20.921875 C 5.710938 20.921875 6.0625 20.570312 6.0625 20.132812 C 6.0625 20.074219 6.054688 20.015625 6.042969 19.957031 L 8.003906 18.671875 C 8.132812 18.765625 8.296875 18.824219 8.46875 18.824219 C 8.6875 18.824219 8.886719 18.734375 9.027344 18.589844 L 10.878906 19.421875 C 10.878906 19.441406 10.875 19.457031 10.875 19.472656 C 10.875 19.910156 11.230469 20.261719 11.664062 20.261719 C 12.097656 20.261719 12.453125 19.910156 12.453125 19.472656 C 12.453125 19.351562 12.425781 19.234375 12.375 19.132812 L 13.65625 17.800781 L 13.65625 23.933594 C 13.65625 24.085938 13.777344 24.207031 13.929688 24.207031 L 15.789062 24.207031 C 15.941406 24.207031 16.066406 24.085938 16.066406 23.933594 L 16.066406 17.777344 C 16.066406 17.625 15.941406 17.503906 15.789062 17.503906 L 13.9375 17.503906 L 14.546875 16.867188 C 14.644531 16.910156 14.75 16.933594 14.859375 16.933594 C 15.292969 16.933594 15.648438 16.578125 15.648438 16.144531 C 15.648438 16.070312 15.636719 16 15.617188 15.933594 C 15.78125 16.023438 15.949219 16.101562 16.125 16.171875 C 16.359375 16.265625 16.601562 16.34375 16.847656 16.402344 L 16.847656 23.933594 C 16.847656 24.085938 16.972656 24.207031 17.125 24.207031 L 18.984375 24.207031 C 19.136719 24.207031 19.261719 24.085938 19.261719 23.933594 L 19.261719 16.386719 C 19.480469 16.328125 19.699219 16.257812 19.910156 16.171875 C 20.242188 16.039062 20.554688 15.871094 20.84375 15.671875 L 21.460938 16.289062 L 21.371094 16.382812 C 21.261719 16.488281 21.261719 16.664062 21.371094 16.769531 L 24.296875 19.699219 C 24.5625 19.960938 24.90625 20.09375 25.253906 20.09375 C 25.597656 20.09375 25.945312 19.960938 26.207031 19.699219 C 26.460938 19.445312 26.601562 19.105469 26.601562 18.746094 C 26.601562 18.382812 26.460938 18.042969 26.207031 17.789062 Z M 5.273438 20.371094 C 5.144531 20.371094 5.039062 20.265625 5.039062 20.132812 C 5.039062 20.003906 5.144531 19.898438 5.273438 19.898438 C 5.40625 19.898438 5.511719 20.003906 5.511719 20.132812 C 5.511719 20.265625 5.40625 20.371094 5.273438 20.371094 Z M 8.46875 18.273438 C 8.339844 18.273438 8.230469 18.167969 8.230469 18.035156 C 8.230469 17.90625 8.339844 17.796875 8.46875 17.796875 C 8.601562 17.796875 8.707031 17.90625 8.707031 18.035156 C 8.707031 18.167969 8.601562 18.273438 8.46875 18.273438 Z M 14.207031 18.054688 L 15.515625 18.054688 L 15.515625 23.65625 L 14.207031 23.65625 Z M 11.664062 19.710938 C 11.535156 19.710938 11.425781 19.605469 11.425781 19.472656 C 11.425781 19.34375 11.535156 19.238281 11.664062 19.238281 C 11.796875 19.238281 11.902344 19.34375 11.902344 19.472656 C 11.902344 19.605469 11.796875 19.710938 11.664062 19.710938 Z M 14.859375 16.382812 C 14.730469 16.382812 14.621094 16.277344 14.621094 16.144531 C 14.621094 16.015625 14.730469 15.910156 14.859375 15.910156 C 14.992188 15.910156 15.097656 16.015625 15.097656 16.144531 C 15.097656 16.277344 14.992188 16.382812 14.859375 16.382812 Z M 20.445312 6.949219 L 20.792969 6.566406 C 20.835938 6.515625 20.859375 6.449219 20.851562 6.386719 L 20.796875 5.832031 C 20.789062 5.765625 20.753906 5.707031 20.703125 5.667969 L 20.285156 5.363281 L 20.394531 5 L 20.910156 4.972656 C 20.976562 4.96875 21.039062 4.9375 21.078125 4.886719 L 21.433594 4.457031 C 21.472656 4.40625 21.492188 4.339844 21.480469 4.273438 L 21.402344 3.765625 L 21.738281 3.585938 L 22.121094 3.933594 C 22.167969 3.976562 22.234375 3.996094 22.300781 3.992188 L 22.855469 3.933594 C 22.917969 3.929688 22.980469 3.894531 23.019531 3.839844 L 23.324219 3.425781 L 23.6875 3.535156 L 23.710938 4.050781 C 23.714844 4.117188 23.746094 4.175781 23.796875 4.21875 L 24.226562 4.570312 C 24.277344 4.613281 24.34375 4.632812 24.410156 4.621094 L 24.921875 4.542969 L 25.101562 4.878906 L 24.753906 5.257812 C 24.710938 5.308594 24.6875 5.375 24.695312 5.4375 L 24.75 5.992188 C 24.757812 6.058594 24.789062 6.117188 24.84375 6.15625 L 25.257812 6.464844 L 25.148438 6.824219 L 24.636719 6.851562 C 24.570312 6.855469 24.507812 6.886719 24.464844 6.9375 L 24.113281 7.367188 C 24.070312 7.417969 24.054688 7.484375 24.0625 7.550781 L 24.140625 8.058594 L 23.808594 8.238281 L 23.425781 7.894531 C 23.375 7.847656 23.3125 7.828125 23.246094 7.832031 L 22.691406 7.890625 C 22.625 7.894531 22.566406 7.929688 22.527344 7.984375 L 22.222656 8.398438 L 21.894531 8.300781 C 21.882812 8.285156 21.871094 8.273438 21.859375 8.257812 L 21.832031 7.773438 C 21.832031 7.707031 21.800781 7.648438 21.75 7.605469 L 21.316406 7.253906 C 21.265625 7.210938 21.199219 7.191406 21.136719 7.203125 L 20.722656 7.265625 C 20.671875 7.230469 20.617188 7.199219 20.566406 7.167969 Z M 18.710938 23.65625 L 17.398438 23.65625 L 17.398438 16.609375 L 18.710938 16.609375 Z M 19.703125 15.660156 C 19.167969 15.878906 18.597656 15.988281 18.015625 15.988281 C 17.433594 15.988281 16.867188 15.878906 16.332031 15.660156 C 15.777344 15.4375 15.277344 15.105469 14.847656 14.675781 C 14.421875 14.25 14.089844 13.75 13.863281 13.195312 C 13.648438 12.65625 13.535156 12.089844 13.535156 11.507812 C 13.535156 10.925781 13.648438 10.359375 13.863281 9.824219 C 14.089844 9.265625 14.421875 8.769531 14.847656 8.339844 C 15.277344 7.914062 15.777344 7.582031 16.332031 7.355469 C 16.867188 7.140625 17.433594 7.027344 18.015625 7.027344 C 18.597656 7.027344 19.167969 7.140625 19.703125 7.355469 C 19.910156 7.441406 20.105469 7.539062 20.296875 7.648438 C 20.335938 7.71875 20.40625 7.761719 20.484375 7.769531 C 20.734375 7.933594 20.96875 8.125 21.183594 8.339844 C 21.613281 8.769531 21.945312 9.265625 22.167969 9.824219 C 22.386719 10.359375 22.496094 10.925781 22.496094 11.507812 C 22.496094 12.089844 22.386719 12.65625 22.167969 13.195312 C 21.945312 13.75 21.613281 14.25 21.183594 14.675781 C 20.757812 15.105469 20.257812 15.4375 19.703125 15.660156 Z M 21.851562 15.898438 L 21.296875 15.34375 L 21.851562 14.789062 L 22.40625 15.34375 Z M 25.816406 19.308594 C 25.507812 19.621094 25 19.621094 24.6875 19.308594 L 21.953125 16.578125 L 23.085938 15.445312 L 25.816406 18.179688 C 25.96875 18.328125 26.050781 18.53125 26.050781 18.746094 C 26.050781 18.957031 25.96875 19.160156 25.816406 19.308594 Z M 25.816406 19.308594 " fill-opacity="1" fill-rule="nonzero"/></g><path fill="#ffffff" d="M 22.085938 11.507812 C 22.085938 10.980469 21.984375 10.464844 21.789062 9.976562 C 21.582031 9.472656 21.28125 9.019531 20.894531 8.632812 C 20.507812 8.242188 20.054688 7.941406 19.546875 7.738281 C 19.0625 7.539062 18.546875 7.441406 18.015625 7.441406 C 17.488281 7.441406 16.972656 7.539062 16.484375 7.738281 C 15.980469 7.941406 15.527344 8.242188 15.140625 8.632812 C 14.75 9.019531 14.449219 9.472656 14.246094 9.976562 C 14.046875 10.464844 13.949219 10.980469 13.949219 11.507812 C 13.949219 12.035156 14.046875 12.550781 14.246094 13.039062 C 14.449219 13.542969 14.75 13.996094 15.140625 14.386719 C 15.527344 14.773438 15.980469 15.074219 16.484375 15.28125 C 16.972656 15.476562 17.488281 15.578125 18.015625 15.578125 C 18.546875 15.578125 19.0625 15.476562 19.546875 15.28125 C 20.054688 15.074219 20.507812 14.773438 20.894531 14.386719 C 21.28125 13.996094 21.582031 13.542969 21.789062 13.039062 C 21.984375 12.550781 22.085938 12.039062 22.085938 11.507812 Z M 21.277344 12.832031 C 21.101562 13.269531 20.839844 13.660156 20.503906 13.996094 C 20.167969 14.332031 19.777344 14.59375 19.339844 14.769531 C 18.917969 14.941406 18.472656 15.027344 18.015625 15.027344 C 17.558594 15.027344 17.113281 14.941406 16.691406 14.769531 C 16.257812 14.59375 15.863281 14.332031 15.527344 13.996094 C 15.191406 13.660156 14.933594 13.269531 14.757812 12.832031 C 14.585938 12.410156 14.5 11.964844 14.5 11.507812 C 14.5 11.050781 14.585938 10.605469 14.757812 10.183594 C 14.933594 9.75 15.191406 9.355469 15.527344 9.019531 C 15.863281 8.683594 16.257812 8.425781 16.691406 8.246094 C 17.113281 8.078125 17.558594 7.992188 18.015625 7.992188 C 18.472656 7.992188 18.917969 8.078125 19.339844 8.246094 C 19.777344 8.425781 20.167969 8.683594 20.503906 9.019531 C 20.839844 9.355469 21.101562 9.75 21.277344 10.183594 C 21.449219 10.605469 21.535156 11.050781 21.535156 11.507812 C 21.535156 11.964844 21.449219 12.410156 21.277344 12.832031 Z M 21.277344 12.832031 " fill-opacity="1" fill-rule="nonzero"/><path fill="#ffffff" d="M 20.320312 12.847656 L 20.320312 10.445312 C 20.320312 10.382812 20.269531 10.335938 20.210938 10.335938 L 19.324219 10.335938 C 19.265625 10.335938 19.214844 10.382812 19.214844 10.445312 L 19.214844 12.792969 L 18.609375 12.792969 L 18.609375 11.117188 C 18.609375 11.066406 18.5625 11.023438 18.511719 11.023438 L 17.597656 11.023438 C 17.546875 11.023438 17.503906 11.066406 17.503906 11.117188 L 17.503906 12.792969 L 16.894531 12.792969 L 16.894531 11.59375 C 16.894531 11.546875 16.855469 11.507812 16.8125 11.507812 L 15.875 11.507812 C 15.828125 11.507812 15.789062 11.546875 15.789062 11.59375 L 15.789062 12.792969 C 15.636719 12.792969 15.515625 12.917969 15.515625 13.070312 C 15.515625 13.222656 15.636719 13.34375 15.789062 13.34375 L 20.160156 13.34375 C 20.308594 13.34375 20.433594 13.222656 20.433594 13.070312 C 20.433594 12.976562 20.390625 12.898438 20.320312 12.847656 Z M 20.320312 12.847656 " fill-opacity="1" fill-rule="nonzero"/><path fill="#ffffff" d="M 15.992188 11.253906 C 16.050781 11.253906 16.113281 11.230469 16.15625 11.1875 L 17.238281 10.105469 L 17.742188 10.609375 C 17.785156 10.652344 17.84375 10.679688 17.90625 10.679688 C 17.96875 10.679688 18.027344 10.652344 18.070312 10.609375 L 18.910156 9.769531 L 18.910156 9.933594 C 18.910156 10.0625 19.011719 10.164062 19.140625 10.164062 C 19.269531 10.164062 19.375 10.0625 19.375 9.933594 L 19.375 9.183594 C 19.375 9.058594 19.269531 8.953125 19.140625 8.953125 L 18.394531 8.953125 C 18.265625 8.953125 18.160156 9.058594 18.160156 9.183594 C 18.160156 9.3125 18.265625 9.417969 18.394531 9.417969 L 18.605469 9.417969 L 17.90625 10.117188 L 17.402344 9.613281 C 17.359375 9.570312 17.300781 9.542969 17.238281 9.542969 C 17.175781 9.542969 17.117188 9.570312 17.074219 9.613281 L 15.828125 10.859375 C 15.738281 10.949219 15.738281 11.09375 15.828125 11.1875 C 15.875 11.230469 15.933594 11.253906 15.992188 11.253906 Z M 15.992188 11.253906 " fill-opacity="1" fill-rule="nonzero"/><path fill="#ffffff" d="M 22.773438 7.253906 C 22.816406 7.253906 22.863281 7.25 22.90625 7.246094 C 23.640625 7.171875 24.179688 6.511719 24.105469 5.777344 C 24.070312 5.421875 23.898438 5.101562 23.621094 4.875 C 23.34375 4.648438 22.996094 4.542969 22.640625 4.578125 C 22.28125 4.613281 21.960938 4.789062 21.734375 5.0625 C 21.507812 5.339844 21.402344 5.691406 21.441406 6.046875 C 21.507812 6.734375 22.09375 7.253906 22.773438 7.253906 Z M 22.09375 5.359375 C 22.242188 5.175781 22.453125 5.066406 22.683594 5.042969 C 22.714844 5.039062 22.746094 5.039062 22.773438 5.039062 C 22.976562 5.039062 23.167969 5.105469 23.328125 5.234375 C 23.507812 5.382812 23.621094 5.59375 23.644531 5.824219 C 23.691406 6.304688 23.339844 6.734375 22.859375 6.78125 C 22.378906 6.832031 21.949219 6.480469 21.902344 6 C 21.878906 5.765625 21.949219 5.539062 22.09375 5.359375 Z M 22.09375 5.359375 " fill-opacity="1" fill-rule="nonzero"/></svg>