<svg xmlns="http://www.w3.org/2000/svg" xmlns:xlink="http://www.w3.org/1999/xlink" width="40" zoomAndPan="magnify" viewBox="0 0 30 30.000001" height="40" preserveAspectRatio="xMidYMid meet" version="1.0"><defs><clipPath id="8a78e1af67"><path d="M 0.484375 0 L 29.515625 0 L 29.515625 29.03125 L 0.484375 29.03125 Z M 0.484375 0 " clip-rule="nonzero"/></clipPath><clipPath id="a876847049"><path d="M 4.113281 0 L 25.886719 0 C 27.890625 0 29.515625 1.625 29.515625 3.628906 L 29.515625 25.402344 C 29.515625 27.40625 27.890625 29.03125 25.886719 29.03125 L 4.113281 29.03125 C 2.109375 29.03125 0.484375 27.40625 0.484375 25.402344 L 0.484375 3.628906 C 0.484375 1.625 2.109375 0 4.113281 0 Z M 4.113281 0 " clip-rule="nonzero"/></clipPath><clipPath id="512483fd7b"><path d="M 0.484375 0 L 29.515625 0 L 29.515625 29.03125 L 0.484375 29.03125 Z M 0.484375 0 " clip-rule="nonzero"/></clipPath><clipPath id="6819b7c9a0"><path d="M 4.113281 0 L 25.886719 0 C 27.890625 0 29.515625 1.625 29.515625 3.628906 L 29.515625 25.402344 C 29.515625 27.40625 27.890625 29.03125 25.886719 29.03125 L 4.113281 29.03125 C 2.109375 29.03125 0.484375 27.40625 0.484375 25.402344 L 0.484375 3.628906 C 0.484375 1.625 2.109375 0 4.113281 0 Z M 4.113281 0 " clip-rule="nonzero"/></clipPath><clipPath id="66b94d2c81"><rect x="0" width="30" y="0" height="30"/></clipPath><clipPath id="447a24c83a"><path d="M 3.386719 4.859375 L 26.613281 4.859375 L 26.613281 23 L 3.386719 23 Z M 3.386719 4.859375 " clip-rule="nonzero"/></clipPath></defs><g clip-path="url(#8a78e1af67)"><g clip-path="url(#a876847049)"><g transform="matrix(1, 0, 0, 1, 0, 0.000000000000005692)"><g clip-path="url(#66b94d2c81)"><g clip-path="url(#512483fd7b)"><g clip-path="url(#6819b7c9a0)"><path fill="#8c52ff" d="M 0.484375 0 L 29.515625 0 L 29.515625 29.03125 L 0.484375 29.03125 Z M 0.484375 0 " fill-opacity="1" fill-rule="nonzero"/></g></g></g></g></g></g><g clip-path="url(#447a24c83a)"><path fill="#ffffff" d="M 14.429688 14.523438 L 11.597656 17.355469 C 11.511719 17.4375 11.476562 17.449219 11.414062 17.46875 C 11.128906 17.566406 10.78125 17.324219 10.789062 17.011719 C 10.789062 16.890625 10.84375 16.773438 10.925781 16.683594 L 14.164062 13.449219 C 14.355469 13.257812 14.617188 13.148438 14.890625 13.140625 C 14.902344 13.140625 14.902344 13.140625 14.917969 13.140625 C 15.183594 13.148438 15.449219 13.257812 15.640625 13.449219 L 18.878906 16.683594 C 18.960938 16.773438 18.972656 16.804688 18.992188 16.867188 C 19.089844 17.152344 18.851562 17.5 18.535156 17.496094 C 18.414062 17.492188 18.296875 17.4375 18.207031 17.355469 L 15.378906 14.523438 L 15.378906 22.179688 C 15.371094 22.308594 15.355469 22.339844 15.320312 22.40625 C 15.183594 22.65625 14.792969 22.722656 14.582031 22.527344 C 14.484375 22.4375 14.433594 22.3125 14.429688 22.179688 Z M 12.234375 20.082031 L 7.765625 20.082031 C 5.65625 20.074219 3.65625 18.34375 3.511719 16.089844 C 3.402344 14.355469 4.453125 12.601562 6.085938 11.898438 C 6.480469 11.730469 6.90625 11.621094 7.332031 11.578125 L 7.347656 11.574219 C 7.347656 11.546875 7.351562 11.519531 7.355469 11.492188 C 7.714844 8.738281 9.71875 6.203125 12.445312 5.269531 C 13.226562 5 14.054688 4.867188 14.878906 4.863281 C 14.894531 4.863281 14.910156 4.863281 14.925781 4.863281 C 17.246094 4.871094 19.535156 6.007812 20.949219 7.851562 C 21.769531 8.921875 22.296875 10.214844 22.457031 11.558594 C 22.457031 11.558594 22.386719 11.566406 22.554688 11.585938 C 24.234375 11.792969 25.730469 13.0625 26.167969 14.753906 C 26.597656 16.421875 25.910156 18.320312 24.464844 19.324219 C 23.757812 19.8125 22.90625 20.078125 22.039062 20.082031 L 17.570312 20.082031 C 17.441406 20.058594 17.402344 20.070312 17.292969 19.988281 C 17.046875 19.8125 17.046875 19.402344 17.292969 19.222656 C 17.402344 19.144531 17.441406 19.152344 17.570312 19.132812 L 22.039062 19.132812 C 23.699219 19.125 25.269531 17.738281 25.347656 15.96875 C 25.394531 14.929688 24.921875 13.886719 24.113281 13.234375 C 23.535156 12.765625 22.800781 12.503906 22.039062 12.503906 C 22.039062 12.503906 21.945312 12.5 21.882812 12.480469 C 21.566406 12.382812 21.554688 11.941406 21.503906 11.574219 C 21.191406 9.269531 19.589844 7.183594 17.402344 6.296875 C 15.476562 5.511719 13.183594 5.699219 11.398438 6.804688 C 9.597656 7.921875 8.390625 9.914062 8.253906 12.058594 L 8.222656 12.199219 C 8.152344 12.324219 8.058594 12.441406 7.921875 12.480469 C 7.792969 12.519531 7.664062 12.5 7.535156 12.511719 C 6.359375 12.59375 5.261719 13.351562 4.761719 14.417969 C 4.339844 15.320312 4.359375 16.417969 4.804688 17.308594 C 5.355469 18.398438 6.550781 19.128906 7.769531 19.132812 L 12.234375 19.132812 C 12.363281 19.152344 12.40625 19.144531 12.515625 19.222656 C 12.753906 19.394531 12.757812 19.8125 12.515625 19.988281 C 12.40625 20.070312 12.363281 20.058594 12.234375 20.082031 Z M 12.234375 20.082031 " fill-opacity="1" fill-rule="evenodd"/></g></svg>