<svg xmlns="http://www.w3.org/2000/svg" xmlns:xlink="http://www.w3.org/1999/xlink" width="40" zoomAndPan="magnify" viewBox="0 0 30 30.000001" height="40" preserveAspectRatio="xMidYMid meet" version="1.0"><defs><clipPath id="c3ca5709d9"><path d="M 1.933594 0 L 28.066406 0 L 28.066406 29 L 1.933594 29 Z M 1.933594 0 " clip-rule="nonzero"/></clipPath></defs><g clip-path="url(#c3ca5709d9)"><path fill="#b418f3" d="M 28.023438 23.304688 L 26.253906 16.691406 L 26.253906 6.449219 C 26.253906 6.339844 26.214844 6.242188 26.136719 6.164062 L 21.503906 1.535156 C 21.425781 1.453125 21.332031 1.414062 21.21875 1.414062 L 19.222656 1.414062 L 16.878906 0.0625 C 16.785156 0.0078125 16.683594 -0.00390625 16.574219 0.0234375 L 11.378906 1.414062 L 6.429688 1.414062 C 6.320312 1.414062 6.226562 1.453125 6.148438 1.53125 C 6.070312 1.613281 6.03125 1.707031 6.03125 1.816406 L 6.03125 2.847656 L 2.289062 3.851562 C 2.183594 3.878906 2.101562 3.941406 2.046875 4.039062 C 1.992188 4.132812 1.976562 4.234375 2.007812 4.34375 L 6.03125 19.355469 L 6.03125 26.867188 C 6.03125 26.976562 6.070312 27.070312 6.148438 27.148438 C 6.226562 27.226562 6.320312 27.265625 6.429688 27.265625 L 8.148438 27.265625 L 8.492188 28.539062 C 8.519531 28.644531 8.582031 28.726562 8.675781 28.78125 C 8.773438 28.835938 8.875 28.851562 8.980469 28.820312 L 14.78125 27.265625 L 25.851562 27.265625 C 25.960938 27.265625 26.058594 27.226562 26.136719 27.148438 C 26.214844 27.070312 26.253906 26.976562 26.253906 26.867188 L 26.253906 24.195312 L 27.742188 23.796875 C 27.847656 23.765625 27.929688 23.703125 27.984375 23.609375 C 28.039062 23.511719 28.050781 23.410156 28.023438 23.304688 Z M 21.621094 2.78125 L 24.886719 6.046875 L 21.621094 6.046875 Z M 16.621094 0.839844 L 17.617188 1.414062 L 14.472656 1.414062 Z M 2.882812 4.519531 L 6.03125 3.679688 L 6.03125 16.261719 Z M 9.160156 27.945312 L 8.980469 27.265625 L 11.6875 27.265625 Z M 6.832031 26.464844 L 6.832031 2.21875 L 20.820312 2.21875 L 20.820312 6.449219 C 20.820312 6.558594 20.859375 6.652344 20.9375 6.730469 C 21.015625 6.808594 21.109375 6.847656 21.21875 6.847656 L 25.453125 6.847656 L 25.453125 26.464844 Z M 26.253906 23.363281 L 26.253906 19.785156 L 27.148438 23.125 Z M 8.652344 6.066406 C 8.652344 5.953125 8.691406 5.859375 8.769531 5.78125 C 8.847656 5.703125 8.941406 5.664062 9.054688 5.664062 L 13.515625 5.664062 C 13.625 5.660156 13.722656 5.699219 13.804688 5.777344 C 13.886719 5.855469 13.925781 5.953125 13.925781 6.066406 C 13.925781 6.179688 13.886719 6.273438 13.804688 6.351562 C 13.722656 6.429688 13.625 6.46875 13.515625 6.464844 L 9.054688 6.464844 C 8.941406 6.464844 8.847656 6.425781 8.769531 6.347656 C 8.691406 6.269531 8.652344 6.175781 8.652344 6.066406 Z M 8.652344 7.542969 C 8.652344 7.433594 8.691406 7.339844 8.769531 7.261719 C 8.847656 7.183594 8.941406 7.144531 9.054688 7.144531 L 17.113281 7.144531 C 17.222656 7.140625 17.320312 7.175781 17.402344 7.253906 C 17.484375 7.335938 17.523438 7.429688 17.523438 7.542969 C 17.523438 7.65625 17.484375 7.75 17.402344 7.828125 C 17.320312 7.910156 17.222656 7.945312 17.113281 7.941406 L 9.054688 7.941406 C 8.941406 7.941406 8.847656 7.902344 8.769531 7.824219 C 8.691406 7.746094 8.652344 7.652344 8.652344 7.542969 Z M 8.652344 9.019531 C 8.652344 8.910156 8.691406 8.816406 8.769531 8.738281 C 8.847656 8.660156 8.941406 8.621094 9.054688 8.621094 L 17.113281 8.621094 C 17.222656 8.617188 17.320312 8.65625 17.402344 8.734375 C 17.484375 8.8125 17.523438 8.90625 17.523438 9.019531 C 17.523438 9.132812 17.484375 9.230469 17.402344 9.308594 C 17.320312 9.386719 17.222656 9.425781 17.113281 9.421875 L 9.054688 9.421875 C 8.941406 9.421875 8.847656 9.382812 8.769531 9.304688 C 8.691406 9.226562 8.652344 9.132812 8.652344 9.019531 Z M 23.628906 11.929688 C 23.628906 12.039062 23.589844 12.136719 23.511719 12.214844 C 23.433594 12.292969 23.339844 12.332031 23.230469 12.332031 L 9.054688 12.332031 C 8.945312 12.328125 8.851562 12.289062 8.777344 12.210938 C 8.703125 12.132812 8.664062 12.039062 8.664062 11.929688 C 8.664062 11.820312 8.703125 11.730469 8.777344 11.652344 C 8.851562 11.574219 8.945312 11.53125 9.054688 11.53125 L 23.230469 11.53125 C 23.339844 11.53125 23.433594 11.570312 23.511719 11.648438 C 23.589844 11.726562 23.628906 11.820312 23.628906 11.929688 Z M 23.628906 14.339844 C 23.628906 14.449219 23.589844 14.542969 23.511719 14.621094 C 23.433594 14.699219 23.339844 14.738281 23.230469 14.738281 L 9.054688 14.738281 C 8.945312 14.734375 8.851562 14.695312 8.777344 14.617188 C 8.703125 14.539062 8.664062 14.449219 8.664062 14.339844 C 8.664062 14.230469 8.703125 14.136719 8.777344 14.058594 C 8.851562 13.980469 8.945312 13.941406 9.054688 13.9375 L 23.230469 13.9375 C 23.339844 13.9375 23.433594 13.976562 23.511719 14.054688 C 23.589844 14.132812 23.628906 14.226562 23.628906 14.339844 Z M 23.628906 16.746094 C 23.628906 16.859375 23.589844 16.953125 23.511719 17.03125 C 23.433594 17.109375 23.339844 17.148438 23.230469 17.148438 L 9.054688 17.148438 C 8.945312 17.144531 8.851562 17.105469 8.777344 17.027344 C 8.703125 16.949219 8.664062 16.855469 8.664062 16.746094 C 8.664062 16.640625 8.703125 16.546875 8.777344 16.46875 C 8.851562 16.390625 8.945312 16.351562 9.054688 16.347656 L 23.230469 16.347656 C 23.339844 16.347656 23.433594 16.386719 23.511719 16.464844 C 23.589844 16.542969 23.628906 16.636719 23.628906 16.746094 Z M 23.628906 19.15625 C 23.628906 19.265625 23.589844 19.359375 23.511719 19.4375 C 23.433594 19.515625 23.339844 19.554688 23.230469 19.554688 L 9.054688 19.554688 C 8.941406 19.554688 8.847656 19.515625 8.769531 19.4375 C 8.691406 19.359375 8.652344 19.265625 8.652344 19.15625 C 8.652344 19.046875 8.691406 18.949219 8.769531 18.871094 C 8.847656 18.792969 8.941406 18.753906 9.054688 18.753906 L 23.230469 18.753906 C 23.339844 18.753906 23.433594 18.792969 23.511719 18.871094 C 23.589844 18.953125 23.628906 19.046875 23.628906 19.15625 Z M 23.628906 21.566406 C 23.628906 21.675781 23.589844 21.769531 23.511719 21.847656 C 23.433594 21.925781 23.339844 21.964844 23.230469 21.964844 L 18.683594 21.964844 C 18.570312 21.96875 18.472656 21.929688 18.390625 21.851562 C 18.3125 21.773438 18.269531 21.675781 18.269531 21.566406 C 18.269531 21.453125 18.3125 21.355469 18.390625 21.277344 C 18.472656 21.199219 18.570312 21.160156 18.683594 21.164062 L 23.230469 21.164062 C 23.339844 21.164062 23.433594 21.203125 23.511719 21.28125 C 23.589844 21.359375 23.628906 21.453125 23.628906 21.566406 Z M 23.628906 21.566406 " fill-opacity="1" fill-rule="nonzero"/></g></svg>