<svg xmlns="http://www.w3.org/2000/svg" xmlns:xlink="http://www.w3.org/1999/xlink" width="50" zoomAndPan="magnify" viewBox="0 0 37.5 30.000001" height="40" preserveAspectRatio="xMidYMid meet" version="1.0"><defs><clipPath id="0ecd4d3b14"><path d="M 4.644531 9 L 15 9 L 15 20 L 4.644531 20 Z M 4.644531 9 " clip-rule="nonzero"/></clipPath><clipPath id="27f472497f"><path d="M 30 10 L 33.675781 10 L 33.675781 15 L 30 15 Z M 30 10 " clip-rule="nonzero"/></clipPath></defs><g clip-path="url(#0ecd4d3b14)"><path fill="#02f0a5" d="M 9.621094 19.550781 C 8.292969 19.550781 7.046875 19.023438 6.09375 18.070312 C 5.222656 17.199219 4.714844 16.09375 4.644531 14.882812 L 9.621094 14.882812 C 9.808594 14.882812 9.960938 14.730469 9.960938 14.542969 L 9.960938 9.566406 C 12.601562 9.738281 14.679688 11.902344 14.679688 14.542969 C 14.679688 17.300781 12.414062 19.550781 9.621094 19.550781 Z M 4.644531 14.199219 C 4.714844 13.007812 5.222656 11.882812 6.09375 11.015625 C 6.960938 10.144531 8.085938 9.636719 9.28125 9.566406 L 9.28125 14.199219 Z M 4.644531 14.199219 " fill-opacity="1" fill-rule="evenodd"/></g><path fill="#02f0a5" d="M 25.925781 26.195312 L 9.398438 26.195312 C 8.75 26.195312 8.257812 25.703125 8.257812 25.054688 L 8.257812 20.0625 C 8.480469 20.113281 8.71875 20.164062 8.9375 20.179688 L 8.9375 25.054688 C 8.9375 25.328125 9.125 25.515625 9.398438 25.515625 L 25.925781 25.515625 C 26.199219 25.515625 26.386719 25.328125 26.386719 25.054688 L 26.386719 21.511719 L 27.066406 20.828125 L 27.066406 25.054688 C 27.066406 25.703125 26.574219 26.195312 25.925781 26.195312 Z M 26.386719 14.867188 L 26.386719 4.046875 C 26.386719 3.773438 26.199219 3.585938 25.925781 3.585938 L 9.398438 3.585938 C 9.125 3.585938 8.9375 3.773438 8.9375 4.046875 L 8.9375 8.902344 C 8.71875 8.9375 8.480469 8.988281 8.257812 9.039062 L 8.257812 4.046875 C 8.257812 3.398438 8.75 2.90625 9.398438 2.90625 L 25.925781 2.90625 C 26.574219 2.90625 27.066406 3.398438 27.066406 4.046875 L 27.066406 14.183594 Z M 26.386719 14.867188 " fill-opacity="1" fill-rule="evenodd"/><path fill="#02f0a5" d="M 24.273438 5.632812 L 11.050781 5.632812 C 10.863281 5.632812 10.710938 5.476562 10.710938 5.289062 C 10.710938 5.101562 10.863281 4.949219 11.050781 4.949219 L 24.273438 4.949219 C 24.460938 4.949219 24.613281 5.101562 24.613281 5.289062 C 24.613281 5.476562 24.460938 5.632812 24.273438 5.632812 Z M 24.273438 5.632812 " fill-opacity="1" fill-rule="evenodd"/><path fill="#02f0a5" d="M 23.027344 7.113281 L 11.050781 7.113281 C 10.863281 7.113281 10.710938 6.960938 10.710938 6.773438 C 10.710938 6.585938 10.863281 6.433594 11.050781 6.433594 L 23.027344 6.433594 C 23.214844 6.433594 23.371094 6.585938 23.371094 6.773438 C 23.371094 6.960938 23.214844 7.113281 23.027344 7.113281 Z M 23.027344 7.113281 " fill-opacity="1" fill-rule="evenodd"/><path fill="#02f0a5" d="M 20.761719 8.648438 L 11.050781 8.648438 C 10.863281 8.648438 10.710938 8.492188 10.710938 8.304688 C 10.710938 8.117188 10.863281 7.964844 11.050781 7.964844 L 20.761719 7.964844 C 20.949219 7.964844 21.105469 8.117188 21.105469 8.304688 C 21.105469 8.492188 20.949219 8.648438 20.761719 8.648438 Z M 20.761719 8.648438 " fill-opacity="1" fill-rule="evenodd"/><path fill="#02f0a5" d="M 24.902344 10.351562 L 15.871094 10.351562 C 15.6875 10.351562 15.53125 10.195312 15.53125 10.007812 C 15.53125 9.820312 15.6875 9.667969 15.871094 9.667969 L 24.902344 9.667969 C 25.089844 9.667969 25.242188 9.820312 25.242188 10.007812 C 25.242188 10.195312 25.089844 10.351562 24.902344 10.351562 Z M 24.902344 10.351562 " fill-opacity="1" fill-rule="evenodd"/><path fill="#02f0a5" d="M 24.050781 11.984375 L 15.871094 11.984375 C 15.6875 11.984375 15.53125 11.832031 15.53125 11.644531 C 15.53125 11.457031 15.6875 11.304688 15.871094 11.304688 L 24.050781 11.304688 C 24.238281 11.304688 24.390625 11.457031 24.390625 11.644531 C 24.390625 11.832031 24.238281 11.984375 24.050781 11.984375 Z M 24.050781 11.984375 " fill-opacity="1" fill-rule="evenodd"/><path fill="#02f0a5" d="M 22.519531 13.585938 L 15.871094 13.585938 C 15.6875 13.585938 15.53125 13.433594 15.53125 13.246094 C 15.53125 13.058594 15.6875 12.90625 15.871094 12.90625 L 22.519531 12.90625 C 22.703125 12.90625 22.859375 13.058594 22.859375 13.246094 C 22.859375 13.433594 22.703125 13.585938 22.519531 13.585938 Z M 22.519531 13.585938 " fill-opacity="1" fill-rule="evenodd"/><path fill="#02f0a5" d="M 24.902344 15.394531 L 15.871094 15.394531 C 15.6875 15.394531 15.53125 15.238281 15.53125 15.054688 C 15.53125 14.867188 15.6875 14.710938 15.871094 14.710938 L 24.902344 14.710938 C 25.089844 14.710938 25.242188 14.867188 25.242188 15.054688 C 25.242188 15.238281 25.089844 15.394531 24.902344 15.394531 Z M 24.902344 15.394531 " fill-opacity="1" fill-rule="evenodd"/><path fill="#02f0a5" d="M 20.863281 16.996094 L 15.871094 16.996094 C 15.6875 16.996094 15.53125 16.839844 15.53125 16.65625 C 15.53125 16.46875 15.6875 16.3125 15.871094 16.3125 L 20.863281 16.3125 C 21.050781 16.3125 21.207031 16.46875 21.207031 16.65625 C 21.207031 16.839844 21.050781 16.996094 20.863281 16.996094 Z M 20.863281 16.996094 " fill-opacity="1" fill-rule="evenodd"/><path fill="#02f0a5" d="M 24.5625 22.207031 C 24.476562 22.207031 24.390625 22.175781 24.324219 22.105469 L 22.449219 20.230469 C 22.3125 20.113281 22.3125 19.890625 22.449219 19.753906 L 29.605469 12.597656 C 29.742188 12.464844 29.945312 12.464844 30.082031 12.597656 L 31.957031 14.472656 C 32.09375 14.609375 32.09375 14.8125 31.957031 14.949219 L 24.800781 22.105469 C 24.734375 22.175781 24.648438 22.207031 24.5625 22.207031 Z M 24.5625 22.207031 " fill-opacity="1" fill-rule="evenodd"/><path fill="#02f0a5" d="M 21.71875 23.179688 C 21.632812 23.179688 21.546875 23.144531 21.476562 23.078125 C 21.394531 22.992188 21.359375 22.855469 21.410156 22.71875 L 22.058594 20.8125 L 23.746094 22.5 L 21.835938 23.164062 C 21.800781 23.179688 21.75 23.179688 21.71875 23.179688 Z M 21.71875 23.179688 " fill-opacity="1" fill-rule="evenodd"/><g clip-path="url(#27f472497f)"><path fill="#02f0a5" d="M 30.285156 11.917969 L 31.257812 10.945312 C 31.378906 10.828125 31.597656 10.828125 31.734375 10.945312 L 33.609375 12.820312 C 33.746094 12.957031 33.746094 13.179688 33.609375 13.316406 L 32.636719 14.269531 C 32.585938 14.167969 32.535156 14.082031 32.449219 13.996094 L 30.578125 12.121094 L 30.558594 12.105469 C 30.472656 12.019531 30.390625 11.96875 30.285156 11.917969 Z M 30.285156 11.917969 " fill-opacity="1" fill-rule="evenodd"/></g><path fill="#02f0a5" d="M 21.886719 18.800781 L 15.3125 18.800781 C 15.125 18.800781 14.96875 18.648438 14.96875 18.460938 C 14.96875 18.273438 15.125 18.121094 15.3125 18.121094 L 21.886719 18.121094 C 22.074219 18.121094 22.226562 18.273438 22.226562 18.460938 C 22.226562 18.648438 22.074219 18.800781 21.886719 18.800781 Z M 21.886719 18.800781 " fill-opacity="1" fill-rule="evenodd"/><path fill="#02f0a5" d="M 17.457031 20.625 L 15.3125 20.625 C 15.125 20.625 14.96875 20.472656 14.96875 20.285156 C 14.96875 20.097656 15.125 19.941406 15.3125 19.941406 L 17.457031 19.941406 C 17.644531 19.941406 17.796875 20.097656 17.796875 20.285156 C 17.796875 20.472656 17.644531 20.625 17.457031 20.625 Z M 17.457031 20.625 " fill-opacity="1" fill-rule="evenodd"/><path fill="#02f0a5" d="M 20.304688 22.207031 L 15.3125 22.207031 C 15.125 22.207031 14.96875 22.054688 14.96875 21.867188 C 14.96875 21.679688 15.125 21.527344 15.3125 21.527344 L 20.304688 21.527344 C 20.488281 21.527344 20.644531 21.679688 20.644531 21.867188 C 20.644531 22.054688 20.488281 22.207031 20.304688 22.207031 Z M 20.304688 22.207031 " fill-opacity="1" fill-rule="evenodd"/><path fill="#02f0a5" d="M 20.304688 23.914062 L 15.3125 23.914062 C 15.125 23.914062 14.96875 23.757812 14.96875 23.570312 C 14.96875 23.382812 15.125 23.230469 15.3125 23.230469 L 20.304688 23.230469 C 20.488281 23.230469 20.644531 23.382812 20.644531 23.570312 C 20.644531 23.757812 20.488281 23.914062 20.304688 23.914062 Z M 20.304688 23.914062 " fill-opacity="1" fill-rule="evenodd"/></svg>