<svg xmlns="http://www.w3.org/2000/svg" xmlns:xlink="http://www.w3.org/1999/xlink" width="40" zoomAndPan="magnify" viewBox="0 0 30 30.000001" height="40" preserveAspectRatio="xMidYMid meet" version="1.0"><defs><clipPath id="d718b01fb9"><path d="M 0.484375 0 L 29.515625 0 L 29.515625 29.03125 L 0.484375 29.03125 Z M 0.484375 0 " clip-rule="nonzero"/></clipPath></defs><g clip-path="url(#d718b01fb9)"><path fill="#ec1c24" d="M 15 0 C 6.984375 0 0.484375 6.5 0.484375 14.515625 C 0.484375 22.53125 6.984375 29.03125 15 29.03125 C 23.015625 29.03125 29.515625 22.53125 29.515625 14.515625 C 29.515625 6.5 23.015625 0 15 0 Z M 15 24.292969 C 13.574219 24.292969 12.414062 23.136719 12.414062 21.707031 C 12.414062 20.28125 13.570312 19.121094 15 19.121094 C 16.429688 19.121094 17.585938 20.28125 17.585938 21.707031 C 17.585938 23.136719 16.425781 24.292969 15 24.292969 Z M 17.792969 6.132812 L 17.265625 17.195312 C 17.238281 17.695312 17 17.984375 16.476562 17.984375 L 13.523438 17.984375 C 13.023438 17.984375 12.761719 17.695312 12.734375 17.195312 L 12.207031 6.132812 C 12.179688 5.605469 12.496094 5.34375 12.996094 5.34375 L 17 5.34375 C 17.527344 5.34375 17.820312 5.605469 17.792969 6.132812 Z M 17.792969 6.132812 " fill-opacity="1" fill-rule="nonzero"/></g></svg>